<svg width="16" height="16" viewBox="0 0 16 16" fill="none" xmlns="http://www.w3.org/2000/svg">
<path d="M7.99997 5.50001C7.50552 5.50001 7.02217 5.64663 6.61105 5.92133C6.19992 6.19604 5.87949 6.58648 5.69027 7.0433C5.50105 7.50011 5.45155 8.00278 5.54801 8.48773C5.64447 8.97269 5.88257 9.41814 6.23221 9.76777C6.58184 10.1174 7.02729 10.3555 7.51225 10.452C7.9972 10.5484 8.49987 10.4989 8.95668 10.3097C9.4135 10.1205 9.80394 9.80006 10.0786 9.38893C10.3534 8.97781 10.5 8.49446 10.5 8.00001C10.5 7.33697 10.2366 6.70108 9.76774 6.23224C9.2989 5.7634 8.66301 5.50001 7.99997 5.50001ZM7.99997 9.50001C7.7033 9.50001 7.41329 9.41203 7.16662 9.24721C6.91994 9.08239 6.72768 8.84812 6.61415 8.57403C6.50062 8.29994 6.47092 7.99834 6.52879 7.70737C6.58667 7.4164 6.72953 7.14913 6.93931 6.93935C7.14909 6.72957 7.41637 6.58671 7.70734 6.52883C7.99831 6.47095 8.29991 6.50066 8.574 6.61419C8.84809 6.72772 9.08235 6.91998 9.24718 7.16665C9.412 7.41333 9.49997 7.70334 9.49997 8.00001C9.49997 8.39783 9.34194 8.77936 9.06063 9.06067C8.77933 9.34197 8.3978 9.50001 7.99997 9.50001ZM12.6068 9.94626C12.392 10.4541 12.0947 10.9229 11.7268 11.3338C11.6378 11.4301 11.5144 11.4876 11.3833 11.4938C11.2522 11.5 11.1239 11.4545 11.0262 11.3669C10.9284 11.2794 10.8689 11.157 10.8606 11.026C10.8524 10.895 10.8959 10.766 10.9818 10.6669C11.6384 9.93385 12.0014 8.98438 12.0014 8.00032C12.0014 7.01626 11.6384 6.06679 10.9818 5.33376C10.9368 5.28504 10.902 5.22786 10.8792 5.16554C10.8565 5.10322 10.8465 5.037 10.8496 4.97074C10.8527 4.90449 10.869 4.83952 10.8975 4.77962C10.926 4.71972 10.9661 4.66609 11.0156 4.62185C11.065 4.57761 11.1227 4.54365 11.1854 4.52194C11.2481 4.50023 11.3144 4.49121 11.3806 4.4954C11.4468 4.49959 11.5115 4.51691 11.571 4.54635C11.6304 4.57579 11.6834 4.61676 11.7268 4.66688C12.3582 5.37334 12.776 6.2445 12.9318 7.17906C13.0876 8.11362 12.9749 9.07321 12.6068 9.94626ZM4.31247 6.44313C4.01746 7.14149 3.92698 7.9093 4.05158 8.6571C4.17617 9.40491 4.51072 10.1019 5.01622 10.6669C5.10218 10.766 5.14571 10.895 5.13742 11.026C5.12913 11.157 5.06968 11.2794 4.9719 11.3669C4.87412 11.4545 4.74585 11.5 4.61477 11.4938C4.48368 11.4876 4.36029 11.4301 4.27122 11.3338C3.45034 10.4175 2.99641 9.23053 2.99641 8.00032C2.99641 6.77011 3.45034 5.58316 4.27122 4.66688C4.35966 4.56784 4.48381 4.50799 4.61638 4.50048C4.74894 4.49298 4.87906 4.53845 4.9781 4.62688C5.07714 4.71532 5.13699 4.83947 5.1445 4.97204C5.152 5.1046 5.10653 5.23472 5.0181 5.33376C4.7231 5.66194 4.48465 6.03683 4.31247 6.44313ZM15.5 8.00001C15.503 9.96359 14.7332 11.8495 13.3568 13.25C13.3113 13.2987 13.2565 13.3378 13.1956 13.365C13.1348 13.3922 13.0691 13.4069 13.0025 13.4083C12.9358 13.4098 12.8696 13.3979 12.8076 13.3733C12.7456 13.3488 12.6892 13.3121 12.6416 13.2654C12.594 13.2188 12.5562 13.163 12.5305 13.1016C12.5047 13.0401 12.4915 12.9741 12.4917 12.9074C12.4918 12.8407 12.5053 12.7748 12.5313 12.7134C12.5573 12.652 12.5953 12.5965 12.6431 12.55C13.8348 11.3359 14.5024 9.70253 14.5024 8.00126C14.5024 6.29998 13.8348 4.66666 12.6431 3.45251C12.5499 3.35786 12.4982 3.23008 12.4993 3.09728C12.5003 2.96448 12.5541 2.83754 12.6487 2.74438C12.7434 2.65123 12.8712 2.59948 13.004 2.60054C13.1367 2.60159 13.2637 2.65536 13.3568 2.75001C14.7332 4.15053 15.503 6.03642 15.5 8.00001ZM3.35685 12.5488C3.40289 12.5956 3.43926 12.6511 3.46386 12.712C3.48847 12.7729 3.50083 12.8381 3.50025 12.9038C3.49967 12.9695 3.48616 13.0344 3.46048 13.0949C3.4348 13.1554 3.39746 13.2102 3.3506 13.2563C3.30373 13.3023 3.24826 13.3387 3.18734 13.3633C3.12642 13.3879 3.06125 13.4002 2.99555 13.3997C2.92986 13.3991 2.86492 13.3856 2.80444 13.3599C2.74397 13.3342 2.68914 13.2969 2.6431 13.25C1.26696 11.8491 0.495911 9.96378 0.495911 8.00001C0.495911 6.03623 1.26696 4.15096 2.6431 2.75001C2.68863 2.70133 2.74344 2.66224 2.8043 2.63505C2.86516 2.60786 2.93084 2.59311 2.99748 2.59167C3.06412 2.59023 3.13038 2.60213 3.19235 2.62668C3.25433 2.65122 3.31077 2.6879 3.35836 2.73458C3.40595 2.78125 3.44373 2.83697 3.46947 2.89846C3.49522 2.95994 3.5084 3.02595 3.50826 3.09261C3.50812 3.15927 3.49465 3.22523 3.46865 3.2866C3.44265 3.34798 3.40463 3.40354 3.35685 3.45001C2.16514 4.66416 1.4975 6.29748 1.4975 7.99876C1.4975 9.70003 2.16514 11.3334 3.35685 12.5475V12.5488Z" fill="#1C1C1C"/>
</svg>
